<svg width="64" height="64" viewBox="0 0 64 64" xmlns="http://www.w3.org/2000/svg">
  <defs>
    <linearGradient id="fireGradient" x1="0%" y1="0%" x2="100%" y2="100%">
      <stop offset="0%" style="stop-color:#ff6b6b;stop-opacity:1" />
      <stop offset="50%" style="stop-color:#ff9800;stop-opacity:1" />
      <stop offset="100%" style="stop-color:#ffeb3b;stop-opacity:1" />
    </linearGradient>
    <linearGradient id="iceGradient" x1="0%" y1="0%" x2="100%" y2="100%">
      <stop offset="0%" style="stop-color:#4ecdc4;stop-opacity:1" />
      <stop offset="50%" style="stop-color:#29b6f6;stop-opacity:1" />
      <stop offset="100%" style="stop-color:#a8edea;stop-opacity:1" />
    </linearGradient>
    <filter id="glow">
      <feGaussianBlur stdDeviation="3" result="coloredBlur"/>
      <feMerge> 
        <feMergeNode in="coloredBlur"/>
        <feMergeNode in="SourceGraphic"/>
      </feMerge>
    </filter>
  </defs>
  
  <!-- Background circle -->
  <circle cx="32" cy="32" r="30" fill="#1a1a2e" stroke="#333" stroke-width="2"/>
  
  <!-- Fire planet (left) -->
  <circle cx="22" cy="32" r="12" fill="url(#fireGradient)" filter="url(#glow)"/>
  <circle cx="20" cy="30" r="3" fill="#ffeb3b" opacity="0.8"/>
  
  <!-- Ice planet (right) -->
  <circle cx="42" cy="32" r="12" fill="url(#iceGradient)" filter="url(#glow)"/>
  <circle cx="44" cy="30" r="3" fill="#ffffff" opacity="0.8"/>
  
  <!-- Orbital path -->
  <circle cx="32" cy="32" r="18" fill="none" stroke="#666" stroke-width="1" stroke-dasharray="2,2" opacity="0.5"/>
  
  <!-- Center point -->
  <circle cx="32" cy="32" r="2" fill="#7c3aed"/>
  
  <!-- Sparkles -->
  <polygon points="15,15 16,17 18,16 16,18 15,20 14,18 12,16 14,17" fill="#ffeb3b" opacity="0.7"/>
  <polygon points="50,20 51,22 53,21 51,23 50,25 49,23 47,21 49,22" fill="#a8edea" opacity="0.7"/>
  <polygon points="48,48 49,50 51,49 49,51 48,53 47,51 45,49 47,50" fill="#ff6b6b" opacity="0.7"/>
</svg>